<svg width="279" height="72" viewBox="0 0 279 72" fill="none" xmlns="http://www.w3.org/2000/svg">
<path d="M18.168 0.999995C24.0346 0.999995 28.5346 2.56666 31.668 5.69999C34.868 8.76666 36.468 13.4333 36.468 19.7V20.2C36.468 23 36.168 25.4667 35.568 27.6C34.968 29.7333 34.168 31.5333 33.168 33C32.168 34.4 31.0346 35.5 29.768 36.3C28.568 37.1 27.368 37.5667 26.168 37.7V38.7C27.368 38.8333 28.568 39.3333 29.768 40.2C31.0346 41 32.168 42.1333 33.168 43.6C34.168 45.0667 34.968 46.8333 35.568 48.9C36.168 50.9667 36.468 53.2667 36.468 55.8V56.8C36.468 59.8 36.5013 62.4333 36.568 64.7C36.7013 66.9667 37.0013 69.0667 37.468 71H23.468C23.0013 68.8667 22.7013 66.6333 22.568 64.3C22.5013 61.9667 22.468 59.4333 22.468 56.7V49.5C22.468 46.0333 21.0013 44.3 18.068 44.3H14.868V71.1H0.867969V0.999995H18.168ZM14.868 32.1H18.068C21.0013 32.1 22.468 30.3 22.468 26.7V18.5C22.468 14.9667 21.0013 13.2 18.068 13.2H14.868V32.1ZM39.8305 18.2C39.8305 12 41.4305 7.43333 44.6305 4.5C47.8971 1.5 52.2638 -3.8147e-06 57.7305 -3.8147e-06C63.3305 -3.8147e-06 67.7638 1.53333 71.0305 4.6C74.3638 7.6 76.0305 12.1333 76.0305 18.2V53.7C76.0305 59.8333 74.3638 64.4333 71.0305 67.5C67.7638 70.5 63.3305 72 57.7305 72C52.2638 72 47.8971 70.5 44.6305 67.5C41.4305 64.5 39.8305 59.9 39.8305 53.7V18.2ZM53.8305 54.7C53.8305 56.6333 54.2305 58 55.0305 58.8C55.8971 59.5333 56.8638 59.9 57.9305 59.9C59.0638 59.9 60.0305 59.5333 60.8305 58.8C61.6305 58 62.0305 56.6333 62.0305 54.7V17.3C62.0305 15.3667 61.6305 14.0333 60.8305 13.3C60.0305 12.5667 59.0638 12.2 57.9305 12.2C56.8638 12.2 55.8971 12.5667 55.0305 13.3C54.2305 14.0333 53.8305 15.3667 53.8305 17.3V54.7ZM106.809 0.899997L114.309 70.9H100.309L98.7094 53.6H92.6094L91.1094 70.9H77.1094L84.9094 0.899997H106.809ZM97.6094 41.4L96.2094 24.7H95.2094L93.7094 41.4H97.6094ZM134.093 0.999995C139.56 0.999995 143.96 2.4 147.293 5.19999C150.626 7.99999 152.293 12.4 152.293 18.4V53.6C152.293 59.6 150.626 64 147.293 66.8C143.96 69.6 139.56 71 134.093 71H116.493V0.999995H134.093ZM130.593 58.8H133.993C135.26 58.8 136.293 58.4667 137.093 57.8C137.893 57.0667 138.293 55.7333 138.293 53.8V18.2C138.293 16.2667 137.893 14.9667 137.093 14.3C136.293 13.5667 135.26 13.2 133.993 13.2H130.593V58.8ZM173.755 0.999995L177.855 47H178.855L182.855 0.999995H200.955V71H188.155L189.655 25.3H188.755L182.955 71H173.655L167.855 25.3H166.955L168.455 71H155.555V0.999995H173.755ZM232.981 0.899997L240.481 70.9H226.481L224.881 53.6H218.781L217.281 70.9H203.281L211.081 0.899997H232.981ZM223.781 41.4L222.381 24.7H221.381L219.881 41.4H223.781ZM259.965 0.999995C265.898 0.999995 270.432 2.96666 273.565 6.9C276.698 10.8333 278.265 16.9667 278.265 25.3V25.5C278.265 29.7667 277.865 33.3667 277.065 36.3C276.332 39.2333 275.198 41.6 273.665 43.4C272.198 45.2 270.298 46.5 267.965 47.3C265.698 48.1 262.998 48.5 259.865 48.5H256.665V71H242.665V0.999995H259.965ZM256.665 36.4H259.865C261.465 36.4 262.598 35.9667 263.265 35.1C263.932 34.1667 264.265 32.6667 264.265 30.6V19.3C264.265 17.1 263.932 15.5333 263.265 14.6C262.598 13.6667 261.465 13.2 259.865 13.2H256.665V36.4Z" fill="url(#paint0_linear_1_180)"/>
<defs>
<linearGradient id="paint0_linear_1_180" x1="69.25" y1="154.338" x2="286.753" y2="8.84688" gradientUnits="userSpaceOnUse">
<stop stop-color="white"/>
<stop offset="0.4375" stop-color="#D852E5"/>
<stop offset="1" stop-color="#B020FF"/>
</linearGradient>
</defs>
</svg>
