<svg width="66" height="72" viewBox="0 0 66 72" fill="none" xmlns="http://www.w3.org/2000/svg">
<path d="M63.8481 66.3019C54.5966 72.231 41.5591 71.5391 33.0951 64.4655C24.8379 57.5711 21.5679 45.1681 25.486 35.113C26.4827 32.5473 28.1449 30.0195 30.551 28.583C32.4662 27.4387 35.0213 27.285 36.7638 28.8259C39.6397 31.3806 39.4622 36.6666 36.934 39.3864C33.0782 43.5353 26.2517 42.9148 21.443 41.0902C16.901 39.3233 12.8884 36.4204 9.78917 32.6593C3.53758 25.1811 0.611354 14.7331 2.92976 5.17809C3.21069 4.01644 3.57032 2.87525 4.0062 1.76244C4.39557 0.777502 2.929 -0.00620052 2.53986 0.984254C-1.40658 11.024 0.619469 22.6724 6.7478 31.4064C9.77575 35.8013 13.8805 39.3459 18.6695 41.7014C23.8662 44.1844 30.6075 45.4006 35.8487 42.3377C36.9211 41.7325 37.86 40.9168 38.6092 39.9396C39.3584 38.9625 39.9024 37.8439 40.2085 36.6512C40.7746 34.4634 40.5898 32.1488 39.6835 30.0785C39.263 29.0819 38.6063 28.2026 37.7701 27.5164C36.9339 26.8302 35.9433 26.3578 34.8838 26.14C31.8621 25.6055 29.068 27.1582 27.0866 29.34C23.1191 33.7205 21.88 40.3135 22.2698 46.0565C22.651 51.9275 24.8225 57.5406 28.4917 62.1397C36.0845 71.4804 49.7852 74.4788 60.7933 69.7746C62.1616 69.1925 63.4792 68.4976 64.7322 67.697C64.9086 67.5746 65.0306 67.3885 65.0726 67.1779C65.1145 66.9673 65.0731 66.7487 64.9571 66.568C64.8412 66.3873 64.6596 66.2586 64.4507 66.2091C64.2418 66.1595 64.0218 66.193 63.837 66.3023L63.8481 66.3019Z" fill="white"/>
</svg>
