<svg width="345" height="482" viewBox="0 0 345 482" fill="none" xmlns="http://www.w3.org/2000/svg">
<g clip-path="url(#clip0_114_29)">
<path opacity="0.17" d="M308.828 79.321C305.027 97.3706 297.709 114.495 287.291 129.716C276.873 144.938 263.559 157.958 248.109 168.034C232.659 178.11 215.375 185.044 197.245 188.44C179.115 191.837 160.494 191.629 142.444 187.829C124.395 184.029 107.27 176.711 92.0488 166.293C76.8274 155.874 63.8071 142.56 53.7312 127.11C43.6553 111.66 36.7212 94.3764 33.3248 76.2465C29.9284 58.1166 30.1362 39.4952 33.9363 21.4456L171.382 50.3833L308.828 79.321Z" fill="url(#paint0_linear_114_29)"/>
<mask id="path-2-inside-1_114_29" fill="white">
<path d="M303.218 46.4393C303.525 64.8821 300.197 83.2048 293.423 100.361C286.649 117.518 276.562 133.172 263.739 146.43C250.915 159.688 235.605 170.291 218.684 177.633C201.763 184.974 183.561 188.911 165.118 189.218C146.675 189.525 128.353 186.197 111.196 179.423C94.0398 172.649 78.3856 162.562 65.1273 149.739C51.8691 136.915 41.2665 121.605 33.925 104.684C26.5834 87.7625 22.6466 69.5609 22.3394 51.1181L162.779 48.7787L303.218 46.4393Z"/>
</mask>
<path d="M303.218 46.4393C303.525 64.8821 300.197 83.2048 293.423 100.361C286.649 117.518 276.562 133.172 263.739 146.43C250.915 159.688 235.605 170.291 218.684 177.633C201.763 184.974 183.561 188.911 165.118 189.218C146.675 189.525 128.353 186.197 111.196 179.423C94.0398 172.649 78.3856 162.562 65.1273 149.739C51.8691 136.915 41.2665 121.605 33.925 104.684C26.5834 87.7625 22.6466 69.5609 22.3394 51.1181L162.779 48.7787L303.218 46.4393Z" stroke="url(#paint1_linear_114_29)" stroke-width="2" mask="url(#path-2-inside-1_114_29)"/>
<mask id="path-3-inside-2_114_29" fill="white">
<path d="M307.927 161.539C312.766 179.338 314.052 197.916 311.711 216.213C309.371 234.509 303.449 252.165 294.285 268.173C285.121 284.18 272.893 298.226 258.301 309.508C243.708 320.791 227.036 329.088 209.237 333.927C191.438 338.766 172.86 340.052 154.564 337.711C136.267 335.371 118.611 329.449 102.604 320.285C86.5959 311.121 72.55 298.893 61.2678 284.301C49.9856 269.708 41.6881 253.036 36.849 235.237L172.388 198.388L307.927 161.539Z"/>
</mask>
<path d="M307.927 161.539C312.766 179.338 314.052 197.916 311.711 216.213C309.371 234.509 303.449 252.165 294.285 268.173C285.121 284.18 272.893 298.226 258.301 309.508C243.708 320.791 227.036 329.088 209.237 333.927C191.438 338.766 172.86 340.052 154.564 337.711C136.267 335.371 118.611 329.449 102.604 320.285C86.5959 311.121 72.55 298.893 61.2678 284.301C49.9856 269.708 41.6881 253.036 36.849 235.237L172.388 198.388L307.927 161.539Z" stroke="url(#paint2_linear_114_29)" stroke-width="2" mask="url(#path-3-inside-2_114_29)"/>
<path opacity="0.17" d="M320.347 183.506C322.491 201.826 321.007 220.389 315.978 238.136C310.949 255.882 302.473 272.464 291.036 286.935C279.598 301.407 265.422 313.483 249.318 322.476C233.213 331.468 215.494 337.201 197.174 339.346C178.854 341.49 160.291 340.006 142.544 334.977C124.798 329.948 108.216 321.472 93.7447 310.035C79.2737 298.597 67.1971 284.421 58.2046 268.317C49.2121 252.212 43.4797 234.493 41.3347 216.173L180.841 199.84L320.347 183.506Z" fill="url(#paint3_linear_114_29)"/>
<path opacity="0.17" d="M309.346 371.575L59.1855 323L159.272 472.844L309.346 371.575Z" fill="url(#paint4_linear_114_29)"/>
<path d="M306.939 353.914L52.6777 336.856L170.638 473.076L306.939 353.914Z" stroke="url(#paint5_linear_114_29)"/>
</g>
<defs>
<linearGradient id="paint0_linear_114_29" x1="142.444" y1="187.829" x2="325.456" y2="224.607" gradientUnits="userSpaceOnUse">
<stop stop-color="white" stop-opacity="0.44"/>
<stop offset="0.4375" stop-color="#D852E5"/>
<stop offset="1" stop-color="#B020FF"/>
</linearGradient>
<linearGradient id="paint1_linear_114_29" x1="165.118" y1="189.218" x2="351.726" y2="184.394" gradientUnits="userSpaceOnUse">
<stop stop-color="white"/>
<stop offset="0.4375" stop-color="#D852E5"/>
<stop offset="1" stop-color="#B020FF"/>
</linearGradient>
<linearGradient id="paint2_linear_114_29" x1="209.237" y1="333.927" x2="388.912" y2="283.302" gradientUnits="userSpaceOnUse">
<stop stop-color="white"/>
<stop offset="0.4375" stop-color="#D852E5"/>
<stop offset="1" stop-color="#B020FF"/>
</linearGradient>
<linearGradient id="paint3_linear_114_29" x1="197.174" y1="339.346" x2="382.371" y2="315.935" gradientUnits="userSpaceOnUse">
<stop stop-color="white" stop-opacity="0.58"/>
<stop offset="0.4375" stop-color="#D852E5"/>
<stop offset="1" stop-color="#B020FF"/>
</linearGradient>
<linearGradient id="paint4_linear_114_29" x1="159.863" y1="472.959" x2="326.637" y2="502.188" gradientUnits="userSpaceOnUse">
<stop stop-color="white" stop-opacity="0.45"/>
<stop offset="0.4375" stop-color="#D852E5"/>
<stop offset="1" stop-color="#B020FF"/>
</linearGradient>
<linearGradient id="paint5_linear_114_29" x1="171.239" y1="473.116" x2="340.354" y2="481.359" gradientUnits="userSpaceOnUse">
<stop stop-color="white"/>
<stop offset="0.4375" stop-color="#D852E5"/>
<stop offset="1" stop-color="#B020FF"/>
</linearGradient>
<clipPath id="clip0_114_29">
<rect width="345" height="482" fill="white"/>
</clipPath>
</defs>
</svg>
