<svg width="1440" height="445" viewBox="0 0 1440 445" fill="none" xmlns="http://www.w3.org/2000/svg">
<path d="M735 330.709C711.644 375.688 686.381 388.182 637.286 381.185C588.282 374.202 558.797 255.079 556.255 199.772C554.189 112.813 513.642 -46.0119 367.977 14.3595C250.72 70.3329 101.051 -67.102 0 98.3196" stroke="white"/>
<path d="M813 49.1016C820.833 38.2683 845.4 19.0016 881 28.6016C916.6 38.2016 927.167 54.6016 928 61.6016C936 74.9349 951.7 118.902 950.5 188.102C949.3 257.302 945 301.268 943 314.602C937.667 341.435 931.3 398.402 948.5 411.602C965.7 424.802 999.333 392.102 1014 374.102C1016 367.268 1022.9 351.102 1034.5 341.102C1046.1 331.102 1056.67 336.935 1060.5 341.102C1064.17 346.935 1071.5 361.202 1071.5 371.602C1071.5 382.002 1071.5 398.268 1071.5 405.102L1079 428.602C1082.17 436.768 1090.9 450.202 1100.5 438.602C1103.17 435.435 1109.5 424.702 1113.5 407.102C1117.5 389.502 1128.5 384.435 1133.5 384.102C1136.67 384.935 1143.9 387.602 1147.5 391.602C1151.1 395.602 1157 403.602 1159.5 407.102C1162.83 410.268 1173.9 415.202 1191.5 409.602C1209.1 404.002 1220.17 396.602 1223.5 393.602C1233 387.102 1259.1 367.502 1287.5 341.102C1306.5 321.102 1346.5 278.102 1354.5 266.102C1365.83 252.102 1392.6 218.002 1409 193.602C1425.4 169.202 1436.17 147.768 1439.5 140.102" stroke="white" stroke-width="2"/>
</svg>
